<svg width="20" height="20" viewBox="0 0 20 20" fill="none" xmlns="http://www.w3.org/2000/svg">
<path d="M7.93694 13.5C7.84766 13.1539 7.66728 12.8381 7.41456 12.5854C7.16184 12.3327 6.84601 12.1523 6.49994 12.063L0.36494 10.481C0.260271 10.4513 0.168149 10.3883 0.102552 10.3014C0.0369558 10.2146 0.00146484 10.1088 0.00146484 10C0.00146484 9.8912 0.0369558 9.78537 0.102552 9.69856C0.168149 9.61175 0.260271 9.54871 0.36494 9.519L6.49994 7.93601C6.84589 7.84681 7.16163 7.66658 7.41434 7.41404C7.66705 7.16151 7.84751 6.84589 7.93694 6.50001L9.51894 0.365005C9.54835 0.259923 9.61132 0.167347 9.69826 0.1014C9.7852 0.0354524 9.89132 -0.000244141 10.0004 -0.000244141C10.1096 -0.000244141 10.2157 0.0354524 10.3026 0.1014C10.3896 0.167347 10.4525 0.259923 10.4819 0.365005L12.0629 6.50001C12.1522 6.84608 12.3326 7.1619 12.5853 7.41462C12.838 7.66734 13.1539 7.84773 13.4999 7.93701L19.6349 9.518C19.7404 9.5471 19.8335 9.61001 19.8998 9.69708C19.9661 9.78415 20.002 9.89057 20.002 10C20.002 10.1094 19.9661 10.2159 19.8998 10.3029C19.8335 10.39 19.7404 10.4529 19.6349 10.482L13.4999 12.063C13.1539 12.1523 12.838 12.3327 12.5853 12.5854C12.3326 12.8381 12.1522 13.1539 12.0629 13.5L10.4809 19.635C10.4515 19.7401 10.3886 19.8327 10.3016 19.8986C10.2147 19.9646 10.1086 20.0003 9.99944 20.0003C9.89032 20.0003 9.7842 19.9646 9.69726 19.8986C9.61032 19.8327 9.54735 19.7401 9.51794 19.635L7.93694 13.5Z" fill="#A06262"/>
</svg>
